<?xml version="1.0" encoding="UTF-8"?>
<svg id="Capa_2" data-name="Capa 2" xmlns="http://www.w3.org/2000/svg" viewBox="0 0 341.21 324.8">
  <defs>
    <style>
      .cls-1 {
        fill: #fff;
      }
    </style>
  </defs>
  <g id="Capa_1-2" data-name="Capa 1">
    <path class="cls-1" d="m341.21,283.34c-3.94,3.04-8,4.84-12.33,6.08-10.32,2.94-20.56,2.19-30.73-.77-9-2.61-17.15-6.94-24.67-12.5-.7-.52-1.41-1.01-2.29-1.64-.72.72-1.4,1.37-2.05,2.05-21.36,22.12-46.86,37.07-76.83,44.18-14.39,3.42-28.98,4.62-43.77,3.82-55.85-3.01-104.98-36.68-130.38-86.01-8.71-16.93-14.58-34.82-16.79-53.71-6.27-53.57,8.66-100.31,46.49-139.08C68.87,24.25,94.43,10.41,123.78,3.7c14.04-3.21,28.29-4.3,42.63-3.4,55.9,3.52,99.62,35.49,124.11,75.81,11.65,19.18,19.01,39.88,22.32,62.05,1.72,11.51,2.13,23.1,1.41,34.69-1.39,22.36-6.96,43.64-17.04,63.69-.77,1.53-.79,2.68.11,4.17,5.18,8.57,10.69,16.88,17.44,24.32,6.6,7.27,14.39,12.87,23.35,16.87.93.42,1.85.86,3.1,1.45ZM200.23,91.8c-.29-7.67-.41-15.34-.93-22.99-.33-4.85-1.2-9.66-1.91-14.47-.38-2.55-1.92-4.36-4.19-5.5-1.35-.68-2.72-1.38-4.17-1.8-3.06-.89-6.15-1.7-9.27-2.37-9.83-2.11-19.68-4.12-29.52-6.2-6.83-1.44-13.72-2.26-20.7-1.93-2.12.1-4.3.51-6.3,1.21-2.83,1-3.35,2.65-2.34,5.46,3.19,8.78,6.52,17.52,9.5,26.37,10.11,30.01,15.93,60.85,17.34,92.48.45,10.22.54,20.45-.27,30.68-.58,7.27-1.67,14.42-3.55,21.48-.61,2.28-.84,4.72-.9,7.09-.08,3.32,1.61,5.38,4.82,6.28,2.82.78,5.68.72,8.55.23,3.77-.64,6.76-2.48,8.6-5.85,2.56-4.7,5.28-9.34,7.4-14.23,8.9-20.48,15.82-41.65,21.26-63.29,4.34-17.27,7.17-34.74,6.59-52.63Zm-48.35,186.09l.02-.12c.72-.05,1.43-.11,2.15-.16,11.64-.84,18.95-9.38,17.95-20.97-.62-7.22-4.51-11.9-11.47-13.56-4.98-1.19-10-1.09-14.93.3-5.62,1.58-9.23,5.25-10.61,10.95-.91,3.77-.92,7.59-.17,11.41,1.23,6.22,4.92,10.07,11.13,11.37,1.94.41,3.94.53,5.92.79Z"/>
  </g>
</svg>