<?xml version="1.0" encoding="UTF-8"?>
<svg id="Capa_2" data-name="Capa 2" xmlns="http://www.w3.org/2000/svg" viewBox="0 0 161.28 624.01">
  <defs>
    <style>
      .cls-1 {
        fill: #ffe000;
      }

      .cls-2 {
        fill: #fffffe;
      }
    </style>
  </defs>
  <g id="Capa_1-2" data-name="Capa 1">
    <g>
      <path class="cls-1" d="m161.28,311.48c0,101.44,0,202.88,0,304.32,0,8.28-.83,9.02-8.96,7.68-24.13-3.99-41.97-16.68-52.77-38.76-4.42-9.04-6.98-18.72-6.96-28.82.05-38.64.86-77.28.21-115.91-.31-18.16-7.59-34.15-33.31-41.45-29.54-8.38-49.39-27.92-56.07-58.08-4.82-21.8-5.04-44.16,2.55-65.91,6.49-18.59,19.06-31.9,35.66-41.68,8.16-4.81,17.12-7.75,26.25-10.35,13.71-3.91,20.4-14.21,23.14-27.59,1.61-7.85,1.5-15.82,1.5-23.77.03-33.48-.03-66.96.02-100.44.05-33.97,21.92-61.88,56.19-69.93.32-.07.66-.04.99-.09q11.54-1.55,11.54,10.45c0,100.11,0,200.22,0,300.32Zm-89.6-53.84c-5.86,5.23-10.83,9.88-15.58,14.63-12.32,12.34-25.14,24.15-37.6,36.34-2.53,2.47-2.43,3.78.03,6.21,16.23,16,32.29,32.18,48.45,48.25.81.81,1.32,2.4,3.04,1.92,1.08-10.15.46-20.37,1.56-30.41.72-6.6.26-11.57-5.06-16.27-7.48-6.6-7.13-6.92.02-13.81,2.09-2.01,5.11-3.46,5.12-6.97.03-12.94.01-25.89.01-39.88Z"/>
      <path class="cls-2" d="m71.68,257.65c0,13.99.02,26.94-.01,39.88,0,3.51-3.03,4.96-5.12,6.97-7.16,6.89-7.5,7.21-.02,13.81,5.32,4.7,5.78,9.67,5.06,16.27-1.1,10.04-.48,20.25-1.56,30.41-1.71.48-2.23-1.12-3.04-1.92-16.16-16.07-32.22-32.25-48.45-48.25-2.47-2.43-2.56-3.74-.03-6.21,12.46-12.19,25.27-24,37.6-36.34,4.74-4.75,9.71-9.4,15.58-14.63Z"/>
    </g>
  </g>
</svg>